# xmcd CD database file
# Copyright (C) 1993-1998 Ti Kan
# 
# Track frame offsets:
#     182
#     16095
#     29990
#     44297
#     56040
#     72415
#     84575
#     94520
#     107270
#     127970
#     143667
#     159202
# 
# Disc length: 2276 seconds
# 
# Revision: 2
# Processed by: cddbd v1.4PL0 Copyright (c) Steve Scherf et al.
# Submitted via: Gronk 1.4
# 
DISCID=9308e20c
DTITLE=Ray Stevens - The Gospel Side of Ray Stevens
DYEAR=1900
DGENRE=country
TTITLE0=Everything is Beautiful
TTITLE1=Have a Little Talk With Myself
TTITLE2=Love Lifted Me
TTITLE3=Let Your Love be a Light Unto the People
TTITLE4=Glory Special
TTITLE5=Why Don't You Lead Me to That Rock
TTITLE6=Turn Your Radio On
TTITLE7=A Mama and a Papa
TTITLE8=All My Trials
TTITLE9=Oh! Will There Be Any Stars
TTITLE10=I'll Fly Away
TTITLE11=Yes, Jesus Loves Me
EXTD=
EXTT0=
EXTT1=
EXTT2=
EXTT3=
EXTT4=
EXTT5=
EXTT6=
EXTT7=
EXTT8=
EXTT9=
EXTT10=
EXTT11=
PLAYORDER=
